<?xml version="1.0" encoding="UTF-8" standalone="no"?>
<!DOCTYPE svg PUBLIC "-//W3C//DTD SVG 1.1//EN" "http://www.w3.org/Graphics/SVG/1.1/DTD/svg11.dtd">
<svg width="100%" height="100%" viewBox="0 0 1433 541" version="1.1" xmlns="http://www.w3.org/2000/svg" xmlns:xlink="http://www.w3.org/1999/xlink" xml:space="preserve" xmlns:serif="http://www.serif.com/" style="fill-rule:evenodd;clip-rule:evenodd;stroke-linejoin:round;stroke-miterlimit:2;">
    <g transform="matrix(1,0,0,1,-6.13789,-228.665)">
        <g transform="matrix(4.16667,0,0,4.16667,0,0)">
            <g transform="matrix(1,0,0,1,85.0767,-138.389)">
                <g transform="matrix(1,0,0,1,138.267,289.7)">
                    <path d="M0,-64.997C0.743,-64.997 1.114,-64.579 1.114,-63.744L1.114,-62.815C1.114,-61.778 0.867,-60.989 0.356,-60.432C-0.139,-59.89 -0.851,-59.611 -1.749,-59.611L-7.15,-59.611L-7.15,-34.913L-0.959,-34.913C-0.217,-34.913 0.155,-34.511 0.155,-33.706L0.155,-32.731C0.155,-31.694 -0.093,-30.905 -0.604,-30.348C-1.099,-29.806 -1.795,-29.527 -2.708,-29.527L-7.15,-29.527L-7.15,-5.386L-1.749,-5.386C-0.851,-5.386 -0.139,-5.123 0.356,-4.581C0.867,-4.055 1.114,-3.25 1.114,-2.183L1.114,-1.254C1.114,-0.418 0.743,0 0,0L-11.962,0C-12.581,0 -12.968,-0.078 -13.123,-0.248C-13.293,-0.403 -13.37,-0.712 -13.37,-1.161L-13.37,-63.836C-13.37,-64.285 -13.293,-64.594 -13.154,-64.749C-12.999,-64.92 -12.705,-64.997 -12.256,-64.997L0,-64.997Z" style="fill:white;fill-rule:nonzero;"/>
                </g>
                <g transform="matrix(1,0,0,1,144.418,288.539)">
                    <path d="M0,-62.675C0,-63.124 0.077,-63.433 0.217,-63.588C0.356,-63.758 0.666,-63.836 1.114,-63.836L3.76,-63.836C4.411,-63.836 4.983,-63.604 5.478,-63.155C5.973,-62.706 6.221,-62.149 6.221,-61.468L6.221,-4.225L11.591,-4.225C13.495,-4.225 14.439,-3.157 14.439,-1.021L14.439,-0.093C14.439,0.743 14.067,1.161 13.324,1.161L1.114,1.161C0.666,1.161 0.356,1.068 0.217,0.898C0.077,0.712 0,0.418 0,0L0,-62.675Z" style="fill:white;fill-rule:nonzero;"/>
                </g>
                <g transform="matrix(1,0,0,1,189.427,289.7)">
                    <path d="M0,-64.997C0.743,-64.997 1.114,-64.579 1.114,-63.744L1.114,-62.815C1.114,-61.747 0.867,-60.942 0.356,-60.416C-0.139,-59.875 -0.836,-59.611 -1.749,-59.611L-4.596,-59.611L-4.596,-1.347C-4.596,-0.449 -5.045,0 -5.943,0L-9.517,0C-9.997,0 -10.338,-0.109 -10.523,-0.31C-10.725,-0.527 -10.817,-0.867 -10.817,-1.347L-10.817,-59.611L-13.912,-59.611C-15.816,-59.611 -16.76,-60.679 -16.76,-62.815L-16.76,-63.744C-16.76,-64.579 -16.388,-64.997 -15.661,-64.997L0,-64.997Z" style="fill:white;fill-rule:nonzero;"/>
                </g>
                <g transform="matrix(1,0,0,1,194.494,282.798)">
                    <path d="M0,-51.286C0,-52.292 0.201,-53.251 0.588,-54.195C0.975,-55.124 1.547,-55.944 2.306,-56.656C3.064,-57.368 4.008,-57.94 5.138,-58.373C6.267,-58.807 7.567,-59.023 9.053,-59.023C10.539,-59.023 11.854,-58.807 12.999,-58.373C14.144,-57.94 15.089,-57.368 15.831,-56.656C16.574,-55.944 17.131,-55.124 17.518,-54.195C17.905,-53.251 18.106,-52.292 18.106,-51.286L18.106,-0.047C18.106,0.881 17.936,1.81 17.58,2.738C17.224,3.652 16.667,4.487 15.909,5.23C15.15,5.957 14.206,6.577 13.077,7.041C11.947,7.505 10.601,7.737 9.053,7.737C7.506,7.737 6.159,7.505 5.03,7.056C3.9,6.607 2.956,6.019 2.198,5.277C1.439,4.534 0.882,3.698 0.526,2.754C0.17,1.825 0,0.881 0,-0.047L0,-51.286ZM6.221,-0.202C6.221,0.433 6.453,1.005 6.902,1.516C7.366,2.011 8.094,2.259 9.099,2.259C10.074,2.259 10.786,2.011 11.22,1.516C11.669,1.005 11.885,0.433 11.885,-0.202L11.885,-51.085C11.885,-51.719 11.653,-52.292 11.204,-52.802C10.74,-53.298 10.028,-53.545 9.053,-53.545C8.047,-53.545 7.32,-53.298 6.887,-52.802C6.438,-52.292 6.221,-51.719 6.221,-51.085L6.221,-0.202Z" style="fill:white;fill-rule:nonzero;"/>
                </g>
                <g transform="matrix(1,0,0,1,236.191,225.864)">
                    <path d="M0,62.675C0,63.124 -0.077,63.434 -0.248,63.588C-0.403,63.758 -0.712,63.836 -1.161,63.836L-3.807,63.836C-4.457,63.836 -5.014,63.604 -5.494,63.155C-5.973,62.706 -6.221,62.149 -6.221,61.468L-6.221,39.369C-6.221,38.719 -6.453,38.147 -6.902,37.652C-7.351,37.141 -8.063,36.893 -9.038,36.893L-11.792,36.893L-11.792,61.468C-11.792,62.149 -12.04,62.706 -12.535,63.155C-13.03,63.604 -13.603,63.836 -14.253,63.836L-16.899,63.836C-17.348,63.836 -17.657,63.758 -17.797,63.588C-17.936,63.434 -18.013,63.124 -18.013,62.675L-18.013,-0C-18.013,-0.449 -17.936,-0.758 -17.797,-0.913C-17.657,-1.083 -17.348,-1.161 -16.899,-1.161L-8.929,-1.161C-7.382,-1.161 -6.066,-0.944 -4.952,-0.511C-3.838,-0.077 -2.91,0.511 -2.167,1.238C-1.439,1.965 -0.882,2.786 -0.526,3.73C-0.17,4.658 0,5.633 0,6.624L0,28.15C0,31.043 -1.006,33.148 -3.033,34.433C-1.006,35.33 0,36.955 0,39.323L0,62.675ZM-11.792,4.209L-11.792,31.523L-8.79,31.523C-8.31,31.523 -7.893,31.43 -7.552,31.214C-7.212,31.013 -6.949,30.734 -6.747,30.394C-6.562,30.053 -6.422,29.682 -6.345,29.28C-6.268,28.877 -6.221,28.475 -6.221,28.041L-6.221,6.67C-6.221,6.035 -6.453,5.463 -6.902,4.952C-7.351,4.457 -8.063,4.209 -9.038,4.209L-11.792,4.209Z" style="fill:white;fill-rule:nonzero;"/>
                </g>
                <g transform="matrix(1,0,0,1,241.815,282.798)">
                    <path d="M0,-51.286C0,-52.292 0.201,-53.251 0.588,-54.195C0.975,-55.124 1.548,-55.944 2.306,-56.656C3.064,-57.368 4.008,-57.94 5.138,-58.373C6.267,-58.807 7.567,-59.023 9.053,-59.023C10.539,-59.023 11.854,-58.807 12.999,-58.373C14.144,-57.94 15.089,-57.368 15.831,-56.656C16.574,-55.944 17.131,-55.124 17.518,-54.195C17.905,-53.251 18.106,-52.292 18.106,-51.286L18.106,-0.047C18.106,0.881 17.936,1.81 17.58,2.738C17.224,3.652 16.667,4.487 15.909,5.23C15.15,5.957 14.206,6.577 13.077,7.041C11.947,7.505 10.601,7.737 9.053,7.737C7.506,7.737 6.159,7.505 5.03,7.056C3.9,6.607 2.956,6.019 2.198,5.277C1.439,4.534 0.882,3.698 0.526,2.754C0.17,1.825 0,0.881 0,-0.047L0,-51.286ZM6.221,-0.202C6.221,0.433 6.453,1.005 6.902,1.516C7.366,2.011 8.094,2.259 9.1,2.259C10.074,2.259 10.786,2.011 11.22,1.516C11.669,1.005 11.885,0.433 11.885,-0.202L11.885,-51.085C11.885,-51.719 11.653,-52.292 11.204,-52.802C10.74,-53.298 10.028,-53.545 9.053,-53.545C8.047,-53.545 7.32,-53.298 6.887,-52.802C6.438,-52.292 6.221,-51.719 6.221,-51.085L6.221,-0.202Z" style="fill:white;fill-rule:nonzero;"/>
                </g>
                <g transform="matrix(1,0,0,1,124.832,212.405)">
                    <path d="M0,0.001C0,1.766 1.047,3.404 3.112,3.404C5.178,3.404 6.224,1.766 6.224,0.001C6.224,-1.764 5.178,-3.403 3.112,-3.403C1.047,-3.403 0,-1.764 0,0.001M0.865,0.001C0.865,-1.31 1.529,-2.674 3.112,-2.674C4.696,-2.674 5.36,-1.31 5.36,0.001C5.36,1.311 4.696,2.676 3.112,2.676C1.529,2.676 0.865,1.311 0.865,0.001" style="fill:white;fill-rule:nonzero;"/>
                </g>
                <g transform="matrix(1,0,0,1,139.223,209.157)">
                    <path d="M0,6.497L0.865,6.497L0.865,4.222L1.947,3.212L4.295,6.497L5.387,6.497L2.539,2.621L5.278,0L4.159,0L0.865,3.239L0.865,0L0,0L0,6.497Z" style="fill:white;fill-rule:nonzero;"/>
                </g>
                <g transform="matrix(1,0,0,1,157.589,215.809)">
                    <path d="M0,-6.652L-0.865,-6.652L-0.865,-2.502C-0.865,-1.356 -1.465,-0.728 -2.557,-0.728C-3.703,-0.728 -4.359,-1.356 -4.359,-2.502L-4.359,-6.652L-5.223,-6.652L-5.223,-2.502C-5.223,-0.774 -4.231,0 -2.557,0C-0.937,0 0,-0.865 0,-2.502L0,-6.652Z" style="fill:white;fill-rule:nonzero;"/>
                </g>
                <g transform="matrix(1,0,0,1,170.66,213.752)">
                    <path d="M0,-2.693C-0.055,-4.122 -1.065,-4.75 -2.393,-4.75C-3.576,-4.75 -4.75,-4.167 -4.75,-2.847C-4.75,-1.656 -3.704,-1.355 -2.666,-1.128C-1.629,-0.9 -0.591,-0.746 -0.591,0.146C-0.591,1.084 -1.456,1.329 -2.239,1.329C-3.221,1.329 -4.131,0.856 -4.131,-0.236L-4.95,-0.236C-4.95,1.347 -3.722,2.057 -2.266,2.057C-1.083,2.057 0.273,1.502 0.273,0.119C0.273,-1.155 -0.764,-1.519 -1.802,-1.756C-2.848,-1.992 -3.885,-2.11 -3.885,-2.911C-3.885,-3.757 -3.158,-4.021 -2.43,-4.021C-1.538,-4.021 -0.919,-3.621 -0.819,-2.693L0,-2.693Z" style="fill:white;fill-rule:nonzero;"/>
                </g>
                <g transform="matrix(1,0,0,1,0,31.831)">
                    <rect x="179.126" y="177.326" width="0.865" height="6.497" style="fill:white;"/>
                </g>
                <g transform="matrix(1,0,0,1,193.616,209.157)">
                    <path d="M0,6.497L0.865,6.497L0.865,4.222L1.947,3.212L4.295,6.497L5.387,6.497L2.539,2.621L5.278,0L4.159,0L0.865,3.239L0.865,0L0,0L0,6.497Z" style="fill:white;fill-rule:nonzero;"/>
                </g>
                <g transform="matrix(1,0,0,1,207.66,212.66)">
                    <path d="M0,-0.509L0,-2.775L2.147,-2.775C2.957,-2.775 3.303,-2.302 3.303,-1.665C3.303,-0.718 2.612,-0.509 1.802,-0.509L0,-0.509ZM-0.865,2.994L0,2.994L0,0.219L2.111,0.219C2.948,0.219 3.103,0.756 3.194,1.393C3.321,2.03 3.185,2.73 3.43,2.994L4.395,2.994C4.031,2.548 4.067,1.839 4.013,1.202C3.949,0.565 3.794,0.01 3.039,-0.136L3.039,-0.154C3.822,-0.373 4.167,-1.019 4.167,-1.801C4.167,-2.839 3.412,-3.503 2.193,-3.503L-0.865,-3.503L-0.865,2.994Z" style="fill:white;fill-rule:nonzero;"/>
                </g>
                <g transform="matrix(1,0,0,1,224.716,213.752)">
                    <path d="M0,-2.693C-0.055,-4.122 -1.065,-4.75 -2.393,-4.75C-3.576,-4.75 -4.75,-4.167 -4.75,-2.847C-4.75,-1.656 -3.703,-1.355 -2.666,-1.128C-1.629,-0.9 -0.591,-0.746 -0.591,0.146C-0.591,1.084 -1.456,1.329 -2.239,1.329C-3.221,1.329 -4.131,0.856 -4.131,-0.236L-4.95,-0.236C-4.95,1.347 -3.722,2.057 -2.266,2.057C-1.083,2.057 0.273,1.502 0.273,0.119C0.273,-1.155 -0.764,-1.519 -1.802,-1.756C-2.848,-1.992 -3.885,-2.11 -3.885,-2.911C-3.885,-3.757 -3.158,-4.021 -2.43,-4.021C-1.538,-4.021 -0.919,-3.621 -0.819,-2.693L0,-2.693Z" style="fill:white;fill-rule:nonzero;"/>
                </g>
                <g transform="matrix(1,0,0,1,234.62,209.157)">
                    <path d="M0,6.497L0.865,6.497L0.865,0.728L3.03,0.728L3.03,0L-2.166,0L-2.166,0.728L0,0.728L0,6.497Z" style="fill:white;fill-rule:nonzero;"/>
                </g>
                <g transform="matrix(1,0,0,1,0,31.831)">
                    <rect x="245.516" y="177.326" width="0.865" height="6.497" style="fill:white;"/>
                </g>
                <g transform="matrix(1,0,0,1,254.937,209.157)">
                    <path d="M0,6.497L0.819,6.497L0.819,1.283L0.837,1.283L4.231,6.497L5.178,6.497L5.178,0L4.359,0L4.359,5.268L4.341,5.268L0.919,0L0,0L0,6.497Z" style="fill:white;fill-rule:nonzero;"/>
                </g>
                <g transform="matrix(1,0,0,1,131.574,304.34)">
                    <path d="M0,-3.841C-0.078,-5.878 -1.519,-6.774 -3.413,-6.774C-5.1,-6.774 -6.774,-5.943 -6.774,-4.062C-6.774,-2.362 -5.282,-1.933 -3.802,-1.609C-2.323,-1.285 -0.844,-1.064 -0.844,0.208C-0.844,1.545 -2.076,1.895 -3.192,1.895C-4.594,1.895 -5.892,1.22 -5.892,-0.337L-7.06,-0.337C-7.06,1.921 -5.308,2.933 -3.231,2.933C-1.544,2.933 0.389,2.142 0.389,0.169C0.389,-1.648 -1.09,-2.167 -2.57,-2.504C-4.062,-2.842 -5.541,-3.01 -5.541,-4.152C-5.541,-5.359 -4.503,-5.736 -3.465,-5.736C-2.193,-5.736 -1.311,-5.165 -1.168,-3.841L0,-3.841Z" style="fill:white;fill-rule:nonzero;"/>
                </g>
                <g transform="matrix(1,0,0,1,140.809,297.786)">
                    <path d="M0,9.266L1.233,9.266L1.233,1.039L4.322,1.039L4.322,0L-3.088,0L-3.088,1.039L0,1.039L0,9.266Z" style="fill:white;fill-rule:nonzero;"/>
                </g>
                <g transform="matrix(1,0,0,1,151.407,297.786)">
                    <path d="M0,9.266L6.437,9.266L6.437,8.228L1.233,8.228L1.233,5.023L6.047,5.023L6.047,3.984L1.233,3.984L1.233,1.039L6.398,1.039L6.398,0L0,0L0,9.266Z" style="fill:white;fill-rule:nonzero;"/>
                </g>
                <g transform="matrix(1,0,0,1,163.485,297.786)">
                    <path d="M0,9.266L1.272,9.266L2.31,6.476L6.229,6.476L7.241,9.266L8.604,9.266L4.983,0L3.62,0L0,9.266ZM4.269,1.116L4.295,1.116L5.84,5.438L2.699,5.438L4.269,1.116Z" style="fill:white;fill-rule:nonzero;"/>
                </g>
                <g transform="matrix(1,0,0,1,178.249,297.786)">
                    <path d="M0,9.266L1.233,9.266L1.233,6.022L2.777,4.581L6.125,9.266L7.682,9.266L3.621,3.738L7.527,0L5.931,0L1.233,4.62L1.233,0L0,0L0,9.266Z" style="fill:white;fill-rule:nonzero;"/>
                </g>
                <g transform="matrix(1,0,0,1,195.764,297.786)">
                    <path d="M0,9.266L1.233,9.266L1.233,5.023L6.112,5.023L6.112,9.266L7.345,9.266L7.345,0L6.112,0L6.112,3.984L1.233,3.984L1.233,0L0,0L0,9.266Z" style="fill:white;fill-rule:nonzero;"/>
                </g>
                <g transform="matrix(1,0,0,1,209.866,302.419)">
                    <path d="M0,0C0,2.518 1.492,4.854 4.438,4.854C7.384,4.854 8.876,2.518 8.876,0C8.876,-2.518 7.384,-4.854 4.438,-4.854C1.492,-4.854 0,-2.518 0,0M1.233,0C1.233,-1.869 2.18,-3.815 4.438,-3.815C6.696,-3.815 7.644,-1.869 7.644,0C7.644,1.869 6.696,3.815 4.438,3.815C2.18,3.815 1.233,1.869 1.233,0" style="fill:white;fill-rule:nonzero;"/>
                </g>
                <g transform="matrix(1,0,0,1,232.896,307.272)">
                    <path d="M0,-9.486L-1.233,-9.486L-1.233,-3.568C-1.233,-1.933 -2.089,-1.038 -3.647,-1.038C-5.282,-1.038 -6.216,-1.933 -6.216,-3.568L-6.216,-9.486L-7.449,-9.486L-7.449,-3.568C-7.449,-1.103 -6.034,0 -3.647,0C-1.337,0 0,-1.232 0,-3.568L0,-9.486Z" style="fill:white;fill-rule:nonzero;"/>
                </g>
                <g transform="matrix(1,0,0,1,246.648,304.34)">
                    <path d="M0,-3.841C-0.078,-5.878 -1.518,-6.774 -3.413,-6.774C-5.1,-6.774 -6.774,-5.943 -6.774,-4.062C-6.774,-2.362 -5.282,-1.933 -3.802,-1.609C-2.323,-1.285 -0.844,-1.064 -0.844,0.208C-0.844,1.545 -2.076,1.895 -3.192,1.895C-4.594,1.895 -5.892,1.22 -5.892,-0.337L-7.06,-0.337C-7.06,1.921 -5.308,2.933 -3.231,2.933C-1.544,2.933 0.389,2.142 0.389,0.169C0.389,-1.648 -1.09,-2.167 -2.57,-2.504C-4.062,-2.842 -5.541,-3.01 -5.541,-4.152C-5.541,-5.359 -4.503,-5.736 -3.465,-5.736C-2.193,-5.736 -1.311,-5.165 -1.168,-3.841L0,-3.841Z" style="fill:white;fill-rule:nonzero;"/>
                </g>
                <g transform="matrix(1,0,0,1,253.781,297.786)">
                    <path d="M0,9.266L6.437,9.266L6.437,8.228L1.233,8.228L1.233,5.023L6.047,5.023L6.047,3.984L1.233,3.984L1.233,1.039L6.398,1.039L6.398,0L0,0L0,9.266Z" style="fill:white;fill-rule:nonzero;"/>
                </g>
            </g>
        </g>
        <g transform="matrix(4.16667,0,0,4.16667,0,0)">
            <g transform="matrix(1,0,0,1,-99.3978,-7.17304)">
                <g transform="matrix(1,0,0,1,233.218,154.637)">
                    <path d="M0,-55.43L-52.621,-55.43C-73.399,-55.43 -107.283,-56.075 -121.434,-72.167C-126.704,-78.161 -128.568,-84.877 -128.568,-92.584L-132.347,-92.584C-132.347,-86.257 -130.59,-75.626 -128.863,-70.118C-119.559,-40.434 -90.275,-35.346 -63.024,-35.346L-24.292,-35.346L-29.962,5.689L-37.153,10.824L-44.448,5.689L-49.558,-31.291L-70.992,-31.291L-64.632,14.055L-37.153,37.154L-9.66,14.055L0,-55.43Z" style="fill:rgb(245,208,124);"/>
                </g>
                <g transform="matrix(1,0,0,1,231.831,123.92)">
                    <path d="M0,21.742C11.09,22.316 28.1,20.846 34.395,11.429L3.049,-0.574L0,21.742Z" style="fill:rgb(245,208,124);"/>
                </g>
                <g transform="matrix(1,0,0,1,238.24,82.5612)">
                    <path d="M0,16.646C16.572,15.103 33.963,10.561 42.956,0.334C48.224,-5.658 50.09,-12.376 50.09,-20.083L53.869,-20.083C53.869,-13.756 52.112,-3.125 50.385,2.383C42.503,27.531 20.382,35.026 -2.796,36.729L0,16.646Z" style="fill:rgb(245,208,124);"/>
                </g>
                <g transform="matrix(1,0,0,1,160.341,123.92)">
                    <path d="M0,21.742C-11.09,22.316 -28.1,20.846 -34.395,11.429L-3.049,-0.574L0,21.742Z" style="fill:rgb(245,208,124);"/>
                </g>
            </g>
        </g>
    </g>
</svg>
